<svg width="16" height="20" viewBox="0 0 16 20" fill="none" xmlns="http://www.w3.org/2000/svg">
<path d="M8.08299 0.75C4.39299 0.75 1.383 3.76 1.383 7.45C1.383 12.03 7.383 18.77 7.633 19.05C7.873 19.32 8.29299 19.32 8.53299 19.05C8.79299 18.77 14.783 12.03 14.783 7.45C14.783 3.76 11.773 0.75 8.08299 0.75Z" stroke="#999999" stroke-width="1.5" stroke-linecap="round" stroke-linejoin="round"/>
<path d="M8.46794 9.78523C9.76062 9.57947 10.6417 8.36473 10.436 7.07204C10.2302 5.77936 9.01549 4.89824 7.72281 5.104C6.43013 5.30976 5.549 6.52449 5.75477 7.81717C5.96053 9.10985 7.17525 9.99099 8.46794 9.78523Z" stroke="#999999" stroke-width="1.5" stroke-linecap="round" stroke-linejoin="round"/>
</svg>
