<svg width="312" height="26" viewBox="0 0 312 26" fill="none" xmlns="http://www.w3.org/2000/svg">
<g clip-path="url(#clip0_0_518)">
<path d="M0.5 25.6133V15.7598H5.40017L7.11505 15.8147H21.176L22.8076 15.7598H29.1463V25.6133H23.084V21.4607H6.56232V25.6133H0.5ZM4.73051 0.704956H25.5766V19.8007H19.1263V3.41723L22.0335 6.29426H8.16736L10.7964 4.1418C10.958 4.89992 11.0551 5.67035 11.0869 6.44485C11.1153 7.18418 11.1294 7.87628 11.1294 8.52113C11.1294 10.647 10.9351 12.4186 10.5466 13.8358C10.158 15.2531 9.5675 16.316 8.77501 17.0247C7.98135 17.7333 6.99399 18.0876 5.81294 18.0876L3.1361 15.8714C3.81875 15.0234 4.33073 13.8789 4.67205 12.4381C5.01337 10.9972 5.18226 9.23566 5.17872 7.15347C5.17872 6.17557 5.14152 5.15101 5.06711 4.0798C4.99271 3.00859 4.88051 1.88364 4.73051 0.704956Z" fill="#35ADE1"/>
<path d="M29.8871 21.4605L38.0522 7.92742L42.7841 11.7186L37.1948 21.4622L29.8871 21.4605ZM52.6092 15.6143L50.866 15.0048L61.9366 0.697632H68.7181L51.812 21.4605H47.0802L30.1971 0.70472H36.9503L48.0492 15.0119L46.2776 15.6214V0.70472H52.6145L52.6092 15.6143ZM61.6885 21.4605L56.1258 11.7168L60.8293 7.92564L68.9945 21.4587L61.6885 21.4605Z" fill="#35ADE1"/>
<path d="M80.7632 21.9314C78.2724 21.9314 76.0904 21.4796 74.2173 20.5761C72.4321 19.7475 70.9163 18.433 69.8432 16.7832C68.8016 15.1604 68.2807 13.2601 68.2807 11.0823C68.2807 8.9044 68.8016 7.0041 69.8432 5.38134C70.9163 3.73148 72.4321 2.41703 74.2173 1.58841C76.0892 0.684904 78.2712 0.233154 80.7632 0.233154C83.2552 0.233154 85.4366 0.684904 87.3074 1.58841C89.0926 2.41703 90.6084 3.73148 91.6814 5.38134C92.7231 7.0041 93.2439 8.9044 93.2439 11.0823C93.2439 13.2601 92.7231 15.1604 91.6814 16.7832C90.6084 18.433 89.0926 19.7475 87.3074 20.5761C85.4343 21.4796 83.2529 21.9314 80.7632 21.9314ZM80.7632 16.2021C81.8587 16.2286 82.9468 16.0164 83.952 15.5803C84.7988 15.2056 85.5161 14.5893 86.0142 13.8087C86.4856 12.9774 86.7334 12.038 86.7334 11.0823C86.7334 10.1265 86.4856 9.18716 86.0142 8.35581C85.5161 7.57518 84.7988 6.95891 83.952 6.58424C81.9015 5.75515 79.609 5.75515 77.5584 6.58424C76.7117 6.95891 75.9943 7.57518 75.4963 8.35581C75.0249 9.18716 74.7771 10.1265 74.7771 11.0823C74.7771 12.038 75.0249 12.9774 75.4963 13.8087C75.9943 14.5893 76.7117 15.2056 77.5584 15.5803C78.5686 16.0187 79.6624 16.2309 80.7632 16.2021Z" fill="#35ADE1"/>
<path d="M95.9847 0.704956H102.433V21.4607H95.9847V0.704956ZM99.6093 8.03926H114.746V13.7402H99.6093V8.03926ZM112.147 0.704956H118.595V21.4607H112.147V0.704956Z" fill="#35ADE1"/>
<path d="M122.186 0.704956H128.635V21.4607H122.186V0.704956ZM125.82 8.03926H140.965V13.7402H125.82V8.03926ZM138.357 0.704956H144.806V21.4607H138.357V0.704956Z" fill="#35ADE1"/>
<path d="M148.406 21.4607V0.704956H154.774V18.0026L153.057 17.6146L163.934 0.704956H172.348V21.4607H165.982V3.77686L167.671 4.16306L156.572 21.4607H148.406Z" fill="#35ADE1"/>
</g>
<g clip-path="url(#clip1_0_518)">
<path d="M184.992 0.180542H206.83V5.90803H184.992V0.180542ZM192.685 2.97431H199.143V20.9363H192.685V2.97431Z" fill="#35ADE1"/>
<path d="M217.842 18.2806L207.436 0.18042H214.523L222.438 14.0731L217.842 18.2806ZM214.135 20.9379L217.981 14.1865H218.064L225.979 0.182188H232.927L221.081 20.9361L214.135 20.9379Z" fill="#35ADE1"/>
<path d="M234.698 0.180542H241.147V20.9363H234.698V0.180542ZM238.325 7.51307H253.463V13.2158H238.325V7.51307ZM250.862 0.180542H257.31V20.9363H250.862V0.180542Z" fill="#35ADE1"/>
<path d="M268.021 10.5588L266.721 18.5928L264.202 15.7973H280.004V20.9437H260.327L261.877 10.5659L260.327 0.187988H279.866V5.33441H264.202L266.721 2.53887L268.021 10.5588ZM279.04 8.28939V12.8282H263.628V8.28939H279.04Z" fill="#35ADE1"/>
<path d="M305.412 0.18042V17.3647L303.06 15.2388H308.98V25.0923H302.957V19.6907L304.507 20.9308H283.133V0.18042H289.582V17.3647L287.456 15.2388H301.322L298.969 17.3647V0.18042H305.412Z" fill="#35ADE1"/>
</g>
<defs>
<clipPath id="clip0_0_518">
<rect width="171.841" height="25.3017" fill="white" transform="translate(0.5 0.0102539)"/>
</clipPath>
<clipPath id="clip1_0_518">
<rect width="126.508" height="25.3017" fill="white" transform="translate(184.992 0.0102539)"/>
</clipPath>
</defs>
</svg>
