<svg width="64" height="54" viewBox="0 0 64 54" fill="none" xmlns="http://www.w3.org/2000/svg">
<g clip-path="url(#clip0_142_223)">
<path d="M50.4752 46.8975C47.0494 45.7283 40.396 44.518 36.8712 44.0462C28.7128 42.9795 18.4752 43.5129 11.4455 48.9078C13.089 49.8513 14.5148 49.6462 15.287 49.6257C14.6732 51.3078 14.792 52.5795 15.1682 53.9334C20.2573 47.8001 28.8712 46.8975 36.9702 48.0052C39.8811 48.3949 44.8712 49.5437 48.594 50.4667C58.3167 52.8667 59.2474 43.4103 53.9405 41.9949V40.4154V38.6719C53.9405 37.6667 53.9603 36.2308 53.9603 34.3436C53.9801 32.8667 53.9801 31.6154 53.9999 30.6103C54.0197 29.5847 54.0395 28.8052 54.0593 28.2308C54.0791 28.0462 53.9999 27.8821 53.8811 27.7385C53.7623 27.5949 53.6039 27.5334 53.4058 27.5334H52.5148C52.2375 27.5334 51.9999 27.5129 51.7821 27.5129C51.5841 27.5129 51.4257 27.5744 51.3068 27.718C51.188 27.8411 51.1286 28.0052 51.1484 28.1898C51.1682 28.4975 51.2078 28.8667 51.2276 29.277C51.2474 29.6667 51.2672 30.3436 51.287 31.3078C51.3068 32.2924 51.3266 33.5436 51.3464 35.1231C51.3662 36.6821 51.3662 37.9539 51.3266 38.9385C51.3068 39.9026 51.2276 40.5795 51.188 40.9693C51.1682 41.277 50.8118 41.3385 50.0197 41.1744C49.2078 41.0103 48.8118 40.7437 48.7326 40.3949C48.693 40.1693 48.6534 39.636 48.6534 38.7539C48.6336 37.8719 48.6732 36.6411 48.693 35.0821C48.7326 33.5231 48.7722 32.2513 48.792 31.2872C48.8316 30.3026 48.8514 29.6462 48.8712 29.277C48.9108 28.8667 48.9306 28.518 48.9504 28.2308C48.9702 28.0462 48.9108 27.8821 48.792 27.759C48.6534 27.636 48.495 27.5539 48.3167 27.5539C47.5841 27.5744 47.0098 27.5744 46.594 27.5744C46.4157 27.5539 46.2573 27.636 46.1385 27.7385C46.0197 27.8616 45.9603 28.0052 45.9603 28.1693C45.9999 28.8052 46.0197 29.7078 46.0197 30.8975C46.0395 32.0872 46.0395 33.5642 46.0395 35.2872C46.0395 36.9898 46.0197 38.4257 45.9999 39.5744C45.9801 40.7231 45.9603 41.5847 45.9207 42.1795C45.9009 42.3437 45.9801 42.5078 46.0989 42.6513C46.2177 42.7949 46.3761 42.8975 46.5544 42.918C47.3464 43.0821 48.1583 43.2462 48.9504 43.4308C50.1979 43.7385 51.6237 43.8616 52.8712 44.1898C55.3464 44.6411 55.1088 48.4975 50.4752 46.8975ZM30.6138 36.6616C30.5742 37.1334 30.5346 37.7693 30.5544 38.5898C30.594 39.3898 30.6138 39.5334 30.6138 40.0462C30.6336 40.2924 30.6534 40.518 30.6534 40.7231C30.6732 40.8872 30.6138 41.0103 30.495 41.1539C30.3563 41.277 30.2177 41.3385 30.0197 41.3385C29.4653 41.3795 28.891 41.4206 28.3167 41.4616C28.1385 41.4821 27.9801 41.4206 27.8613 41.318C27.7227 41.2154 27.6831 41.0924 27.6831 40.9283C27.7227 40.3744 27.7425 40.0462 27.7623 38.959C27.7821 37.8719 27.8019 36.4975 27.8019 34.877C27.8019 33.9949 27.8019 33.1539 27.7821 32.4154C28.8514 31.2872 29.8613 30.0565 30.6732 28.7436L30.6534 28.8667C30.6138 29.3795 30.594 30.118 30.5742 31.0616C30.5544 32.0257 30.5346 32.7847 30.6138 33.3795C30.6534 33.6872 31.0692 33.8308 31.8019 33.7898C32.5346 33.7488 32.9504 33.6257 32.9504 33.4001C32.9702 32.7847 32.9108 31.9642 32.8712 30.9795C32.8316 29.9949 32.8118 29.2565 32.8118 28.7847C32.792 28.5385 32.792 28.3129 32.7722 28.1077C32.7524 27.9436 32.8316 27.8206 32.9504 27.6975C33.089 27.5744 33.2276 27.5334 33.4256 27.5334H34.2177H35.188C35.3662 27.5129 35.5247 27.5744 35.6633 27.6975C35.7821 27.8001 35.8415 27.9436 35.8415 28.1077C35.8217 28.6001 35.8019 29.2975 35.7821 30.2206C35.7623 31.1436 35.7425 32.2719 35.7425 33.6257C35.7227 35.3283 35.7029 36.7026 35.7029 37.7488C35.7029 38.7744 35.7227 39.4719 35.7227 39.8411C35.7425 40.3334 35.7623 40.7847 35.7821 41.2154C35.8019 41.3795 35.7425 41.5026 35.6237 41.6257C35.4851 41.7488 35.3464 41.7898 35.1484 41.7898H33.4653C33.287 41.7898 33.1286 41.7283 33.0098 41.6257C32.891 41.5026 32.8316 41.3795 32.8316 41.2154C32.8514 41.0103 32.8712 40.8052 32.8712 40.5795C32.891 40.1078 32.9108 39.4719 32.9504 38.6513C32.99 37.8308 33.0494 37.1334 32.9702 36.6001C32.9306 36.2513 32.4554 36.1078 31.7227 36.1488C30.99 36.1898 30.6732 36.3129 30.6138 36.6616ZM11.1286 44.9283C11.1484 44.477 11.1682 43.9847 11.2078 43.4513C11.2474 42.6103 11.287 41.7078 11.3068 40.7642C11.3266 39.8206 11.3266 38.877 11.3464 37.8924C11.3662 36.9283 11.386 36.0462 11.386 35.2257C11.386 34.4052 11.3662 33.6872 11.3464 33.0719C11.3266 32.4565 11.3266 32.0257 11.3068 31.759C11.2672 31.4719 11.2078 31.2257 11.1286 31.0206C11.0296 30.836 10.891 30.7334 10.693 30.6719C10.5148 30.6308 9.98011 30.6103 9.68308 30.6308C8.61377 30.7129 8.61377 30.3642 8.61377 29.6462C8.61377 29.4616 8.63357 29.277 8.63357 29.0719C8.65337 28.7231 8.61377 28.436 8.61377 28.1693C8.61377 27.9642 8.67318 27.7795 8.79199 27.636C8.9108 27.4924 9.06921 27.4308 9.26723 27.4308C9.9009 27.4513 11.1286 27.4513 12.3959 27.4308C13.0692 27.4308 13.7227 27.4103 14.2771 27.4103C14.6732 28.436 15.1682 29.3795 15.7821 30.2821C15.6435 30.3026 15.4455 30.3026 15.188 30.3231C14.9108 30.3436 14.4554 30.4257 14.2969 30.5078C14.1385 30.6103 14.0395 30.7334 13.9801 30.8565C13.9207 30.9795 13.9009 31.1642 13.8811 31.4103C13.8613 31.6565 13.8217 32.1078 13.8217 32.7026C13.8217 33.318 13.8217 34.036 13.8415 34.836C13.8415 35.636 13.8811 36.518 13.9009 37.4616C13.9207 38.3847 13.9405 39.3078 13.9801 40.2103C14.0197 41.1129 14.0593 41.9334 14.0791 42.6924C14.0989 43.1642 14.1187 43.5744 14.1385 43.9231C14.1583 44.1078 14.0791 44.2924 13.9603 44.4565C13.8415 44.6411 13.6831 44.7437 13.5049 44.8052C12.9306 44.9898 12.3563 45.1949 11.8019 45.4001C11.6237 45.4616 11.4653 45.4616 11.3464 45.359C11.188 45.277 11.1286 45.1129 11.1286 44.9283ZM21.1484 41.7898C21.1286 41.8513 21.1088 41.9129 21.089 41.9744C21.0098 42.2411 20.7722 42.4667 20.495 42.5283C19.9405 42.6513 19.3662 42.7539 18.792 42.8975C18.5742 42.959 18.3761 42.8975 18.2573 42.7539C18.1385 42.6103 18.1187 42.4052 18.1979 42.2001C18.4554 41.5026 18.7326 40.7642 19.1286 39.677C19.5247 38.5693 19.9207 37.6052 20.1385 36.4565C20.8118 32.8257 15.7623 31.9847 14.2573 24.8462C14.2177 24.7026 14.2771 24.5795 14.3959 24.4975C14.5148 24.4154 14.6732 24.3744 14.7722 24.477C17.287 27.3898 17.3662 27.4924 19.6831 29.5436C21.0296 30.7334 21.4851 30.0154 22.4752 31.3283C22.8118 30.118 24.2177 30.4052 25.5841 29.4001C27.4256 28.0462 28.693 26.7539 30.9108 24.8052C31.0098 24.7026 31.2276 24.8462 31.3464 24.9283C31.4455 25.0308 31.5049 25.1539 31.4653 25.2975C30.3365 29.0103 27.1088 32.1488 24.9702 34.0975C22.5346 36.3129 22.2375 38.6924 21.1484 41.7898ZM38.5148 27.2667C39.089 27.2667 39.8613 27.2872 40.792 27.2872C41.9009 27.2872 42.7326 27.2872 43.287 27.2667C43.4653 27.2462 43.6237 27.3078 43.7425 27.4308C43.8613 27.5539 43.9405 27.677 43.9405 27.8411V29.1334C43.9405 29.2975 43.8613 29.4206 43.7425 29.5436C43.6237 29.6462 43.4653 29.6872 43.287 29.6872C42.891 29.6667 42.4356 29.6667 41.9207 29.6667C41.1484 29.6667 40.6732 29.7078 40.5346 29.7693C40.3761 29.8513 40.2969 30.3847 40.2573 31.3898C40.1979 32.4154 40.3365 32.9488 40.6336 33.0308C41.4058 33.0719 41.9207 33.0924 42.2177 33.0924C42.3563 33.1129 42.5148 33.1129 42.7128 33.1129C42.891 33.1129 43.0494 33.1744 43.188 33.2975C43.3266 33.4206 43.386 33.5642 43.386 33.7283C43.3662 33.9744 43.3662 34.2616 43.3662 34.5898C43.3662 34.877 43.386 35.1026 43.386 35.3078C43.386 35.4513 43.3266 35.5949 43.2078 35.6975C43.089 35.8001 42.9306 35.8411 42.7524 35.8411C42.6138 35.8206 42.4554 35.8001 42.3167 35.8001C41.9405 35.759 41.4058 35.7385 40.6732 35.718C40.4752 35.7795 40.3761 36.3129 40.3761 37.359C40.3761 38.4052 40.4158 39.0206 40.495 39.1847C40.5742 39.3693 40.8316 39.4719 41.2276 39.5129C42.1385 39.6154 42.8712 39.677 43.4058 39.7385C43.5841 39.759 43.7425 39.8411 43.8613 39.9642C43.9801 40.0872 44.0395 40.2308 44.0395 40.3949C44.0395 41.0103 44.0593 41.5026 44.0593 41.8513C44.0593 42.0154 43.9999 42.1385 43.8811 42.2411C43.7623 42.3437 43.6039 42.3642 43.4256 42.3437C42.5544 42.2206 41.6831 42.118 40.792 42.036C39.9009 41.9539 39.0296 41.8924 38.1583 41.8513C37.9801 41.8308 37.8217 41.7693 37.7029 41.6667C37.5643 41.5436 37.5247 41.4206 37.5247 41.2565C37.5445 40.7437 37.5643 39.9231 37.5643 38.8154C37.5841 37.7078 37.5841 36.3334 37.5841 34.6308C37.5841 33.0513 37.6039 31.718 37.6039 30.6308C37.6039 29.5436 37.5841 28.7026 37.5643 28.1283C37.4851 27.4513 37.4653 27.2667 38.5148 27.2667Z" fill="url(#paint0_linear_142_223)"/>
<path d="M2.87131 38.5282C4.05943 38.5282 5.02972 37.5231 5.02972 36.2923C5.02972 35.0615 4.05943 34.0564 2.87131 34.0564C1.68319 34.0564 0.712891 35.0615 0.712891 36.2923C0.712891 37.5231 1.68319 38.5282 2.87131 38.5282Z" fill="url(#paint1_linear_142_223)"/>
<path d="M61.1286 38.5282C62.3168 38.5282 63.287 37.5231 63.287 36.2923C63.287 35.0615 62.3168 34.0564 61.1286 34.0564C59.9405 34.0564 58.9702 35.0615 58.9702 36.2923C58.9702 37.5231 59.9405 38.5282 61.1286 38.5282Z" fill="url(#paint2_linear_142_223)"/>
<path d="M63.2278 5.23589C63.208 5.62564 63.208 6.09743 63.1882 6.65128C63.1684 7.82051 63.1486 9.35897 63.1486 11.2462C63.1486 13.1538 63.1288 14.7333 63.1288 16.0051C63.1288 17.2769 63.1288 18.241 63.1486 18.8769C63.1684 20.1692 63.1882 21.3385 63.208 22.4256C63.2278 23.2256 63.2674 23.9641 63.2872 24.6821C63.307 24.8667 63.2278 25.0308 63.109 25.1538C62.9902 25.2974 62.8317 25.359 62.6535 25.359H61.0298C60.8515 25.359 60.6931 25.2974 60.5743 25.1538C60.4555 25.0308 60.3961 24.8667 60.3961 24.6821C60.4159 24.3333 60.4357 23.9436 60.4357 23.5128C60.4555 22.7744 60.4555 21.9538 60.4753 21.0513C60.4951 20.1487 60.5149 19.3077 60.5347 18.5077C60.5545 17.7077 60.5743 17.1128 60.5545 16.7436C60.5347 16.3744 60.4951 16.1692 60.4357 16.1692C60.3763 16.1487 60.2773 16.3333 60.1585 16.6615C60.0199 17.0718 59.8614 17.6256 59.6832 18.3436C59.505 19.041 59.2674 20.1897 58.9109 21.7692C58.6535 22.959 58.4555 23.9026 58.3169 24.6C58.2575 24.9077 57.9802 25.1333 57.6832 25.1128C57.3466 25.0923 56.8911 25.0923 56.2971 25.0923C56.1189 25.0923 55.9802 25.0308 55.8614 24.9077C55.7426 24.7846 55.6832 24.641 55.6832 24.4564C55.703 23.9436 55.703 23.1846 55.703 22.2C55.703 20.6615 55.6832 18.5692 55.6634 15.9026C55.6436 13.2359 55.604 11.1641 55.5842 9.66666C55.5644 8.66154 55.5446 7.92307 55.5248 7.45128C55.505 7.1641 55.6832 6.89743 55.9604 6.79487C56.5941 6.58974 57.0892 6.42564 57.4654 6.30256C57.6634 6.22051 57.8614 6.26154 58.0397 6.38461C58.1981 6.50769 58.2971 6.6923 58.2971 6.91795C58.2971 7.88205 58.2773 8.74359 58.2773 9.52307C58.2773 10.5692 58.2575 11.4718 58.2377 12.2103C58.2179 13.7282 58.1981 14.6923 58.2179 15.1026C58.2575 15.5538 58.3961 15.5333 58.6139 15.0205C58.7921 14.6308 58.9901 14.0154 59.2278 13.1949C59.4654 12.3538 59.7624 11.0205 60.0793 9.21538C60.3565 7.65641 60.5545 6.48718 60.6535 5.68718C60.6931 5.46154 60.8317 5.25641 61.0496 5.17436C61.5644 4.96923 61.9803 4.80513 62.3367 4.66154C62.5347 4.57948 62.7525 4.6 62.9307 4.72307C63.1486 4.80513 63.2278 4.98974 63.2278 5.23589ZM49.0694 19.3692C49.0099 19.9231 48.9901 20.641 49.0099 21.5436C49.0496 22.4462 49.0496 23.2051 49.0694 23.7795C49.0694 24.0462 49.0892 24.2923 49.109 24.518C49.1288 24.7026 49.0694 24.8667 48.9505 25.0103C48.8317 25.1538 48.6733 25.2154 48.4951 25.2154H46.8515C46.6733 25.2359 46.5149 25.1538 46.3961 25.0103C46.2773 24.8872 46.2179 24.7231 46.2179 24.5385C46.2575 24.0667 46.2773 23.4308 46.2773 22.6308C46.3169 21.3385 46.3367 19.6154 46.3367 17.4821C46.3367 15.3282 46.3169 13.6051 46.2971 12.2718C46.2773 11.3487 46.2575 10.6308 46.2377 10.1179C46.2179 9.76923 46.4555 9.50256 46.7723 9.44102C47.1684 9.37949 47.7228 9.27692 48.4159 9.13333C48.6139 9.09231 48.8119 9.15384 48.9505 9.27692C49.109 9.42051 49.1684 9.58461 49.1684 9.81025C49.1486 10.0154 49.1288 10.241 49.1288 10.4872C49.0892 11.082 49.0694 11.9231 49.0496 13.0103C49.0298 14.0974 49.0099 14.959 49.0892 15.6154C49.1288 15.9846 49.5248 16.1077 50.2377 15.9846C50.9505 15.8615 51.3466 15.6769 51.3664 15.3897C51.3862 14.6513 51.3268 13.7077 51.2872 12.559C51.2476 11.4103 51.2278 10.5487 51.2278 9.97436C51.2278 9.64615 51.208 9.33846 51.1882 9.07179C51.1684 8.7641 51.3664 8.47692 51.6832 8.39487C51.9208 8.33333 52.2377 8.25128 52.6139 8.16923C52.8911 8.08718 53.1486 8.02564 53.3664 7.9641C53.5644 7.90256 53.7624 7.94359 53.9208 8.08718C54.0793 8.21025 54.1585 8.39487 54.1585 8.62051C54.1387 9.05128 54.1387 9.58461 54.1189 10.241C54.0991 11.4923 54.0793 13.1538 54.0595 15.2462C54.0396 17.3385 54.0199 19 54.0199 20.2718C54.0199 21.5231 54.0396 22.3846 54.0396 22.8359C54.0595 23.4513 54.0793 24.0051 54.0991 24.5385C54.1189 24.7231 54.0595 24.8872 53.9406 25.0308C53.8218 25.1744 53.6634 25.2359 53.4852 25.2359C52.9505 25.2564 52.4159 25.2564 51.8614 25.2564C51.6832 25.2564 51.5248 25.1744 51.406 25.0513C51.2872 24.9282 51.2278 24.7641 51.2476 24.559C51.2674 24.3333 51.2674 24.0872 51.2872 23.8205C51.307 23.2667 51.3268 22.5077 51.3664 21.5436C51.406 20.5795 51.4654 19.7795 51.3862 19.1436C51.3466 18.7538 50.8911 18.6103 50.1783 18.6923C49.4456 18.7744 49.109 19 49.0694 19.3692ZM39.8416 19.8821C39.7822 20.3744 39.7624 21.0308 39.7822 21.8718C39.8218 22.7128 39.8218 23.3897 39.8416 23.9231C39.8416 24.1487 39.8614 24.3538 39.8812 24.5385C39.901 24.7231 39.8218 24.8872 39.703 25.0308C39.5842 25.1744 39.4258 25.2359 39.2476 25.2359H37.6238C37.4456 25.2359 37.2872 25.1744 37.1684 25.0308C37.0496 24.8872 36.9901 24.7436 36.9901 24.5385C37.0297 24.1077 37.0495 23.5128 37.0495 22.7949C37.0892 21.5846 37.109 19.9846 37.109 17.9744C37.109 15.9641 37.0892 14.3436 37.0694 13.0923C37.0496 12.2923 37.0298 11.6564 37.0099 11.1641C36.9901 10.7949 37.2476 10.4872 37.604 10.4872C38 10.4667 38.5545 10.4256 39.2476 10.3641C39.4258 10.3436 39.604 10.4051 39.7426 10.5487C39.8812 10.6923 39.9406 10.8564 39.9208 11.0615C39.901 11.2462 39.8812 11.4718 39.8812 11.6769C39.8416 12.2308 39.8218 13.0103 39.802 13.9949C39.7624 15 39.7624 15.7795 39.8416 16.3949C39.8812 16.7231 40.2773 16.8462 40.9901 16.7846C41.703 16.7026 42.0991 16.559 42.1189 16.3128C42.1387 15.6359 42.0793 14.7949 42.0396 13.7487C42 12.7026 41.9802 11.9231 41.9802 11.4103C41.9802 11.1641 41.9604 10.9179 41.9604 10.6923C41.9406 10.3436 42.1783 10.0359 42.5149 10.0154C42.7525 9.97436 43.0297 9.95384 43.3664 9.91282C43.6832 9.87179 43.9406 9.83077 44.1981 9.78974C44.3961 9.74872 44.5743 9.81025 44.7129 9.95384C44.8515 10.0974 44.9307 10.2615 44.9109 10.4667C44.8911 10.8564 44.8911 11.3077 44.8713 11.882C44.8515 12.9897 44.8317 14.4667 44.8119 16.3128C44.7921 18.159 44.7723 19.6564 44.7723 20.7846C44.7723 21.9128 44.7921 22.6513 44.7921 23.0615C44.8119 23.5744 44.8317 24.0462 44.8515 24.4769C44.8713 24.6615 44.7921 24.8256 44.6733 24.9692C44.5545 25.1128 44.3961 25.1744 44.2179 25.1744H42.6139C42.4357 25.1744 42.2773 25.0923 42.1585 24.9692C42.0396 24.8462 41.9802 24.6821 41.9802 24.4769C42 24.2923 42 24.0872 42.0198 23.8821C42.0396 23.3897 42.0595 22.7128 42.0991 21.8308C42.1387 20.9692 42.1981 20.2308 42.1189 19.6769C42.0793 19.3077 41.6238 19.1846 40.9109 19.2256C40.2179 19.3282 39.8812 19.5333 39.8416 19.8821ZM29.1288 24.5385C28.4951 24.0667 28.0991 23.2051 27.7822 22.0564C27.6238 21.4615 27.505 20.8051 27.4258 20.0872C27.3466 19.3692 27.3466 18.3436 27.3862 16.9692C27.4456 15.5949 27.5248 14.6718 27.6238 14.2C27.7822 13.5641 27.9406 12.9897 28.1387 12.4769C28.3367 11.9846 28.5941 11.5538 28.8911 11.1846C29.1882 10.8359 29.5446 10.5897 29.9406 10.4051C30.3367 10.2205 30.8119 10.1385 31.3466 10.159C31.8614 10.1795 32.3367 10.282 32.7327 10.4667C33.1288 10.6513 33.4852 10.9385 33.7822 11.3077C34.0793 11.6769 34.3367 12.1077 34.5347 12.6205C34.7327 13.1333 34.9109 13.7077 35.0495 14.3436C35.1486 14.8154 35.2476 15.3692 35.2872 16.0256C35.3466 16.6821 35.3664 17.359 35.3664 18.0564C35.3466 18.7744 35.307 19.4718 35.2278 20.1692C35.1486 20.8872 35.0495 21.5231 34.8713 22.1179C34.5545 23.2462 34.0991 24.0667 33.5248 24.5795C33.3862 24.7026 33.2476 24.8051 33.0892 24.8872C32.0991 25.4821 32.4357 24.8872 31.7624 24.3538C31.3664 24.0462 30.8119 23.8821 30.3961 24.2513C29.9802 24.6821 29.6832 24.9692 29.1288 24.5385ZM29.9406 17.9538C29.9406 19.6154 30.0595 20.8667 30.2773 21.6872C30.4753 22.5077 30.8317 22.9179 31.3466 22.9179C31.8416 22.9179 32.1981 22.5077 32.4159 21.6872C32.6337 20.8667 32.7525 19.6359 32.7525 17.9744C32.7525 17.0923 32.7129 16.3128 32.6535 15.6359C32.5941 14.959 32.5149 14.3846 32.3961 13.9128C32.1585 12.9897 31.802 12.5179 31.3466 12.5179C30.8713 12.4974 30.5149 12.9897 30.2971 13.9538C30.1783 14.4462 30.0991 15.0205 30.0396 15.6769C29.9802 16.3538 29.9406 17.1128 29.9406 17.9538ZM17.0694 21.0103C16.5347 22.0154 16.2773 22.8359 16.0991 23.4103C16.0594 23.5744 16 23.759 15.9604 23.9231C15.802 24.4359 15.7426 24.3949 15.3268 23.9641C14.9703 23.5538 14.3961 23.5538 13.9802 23.841C13.6238 24.0872 13.4456 24.559 13.5446 24.9897C13.5842 25.0923 13.5446 25.1538 13.2872 25.1538C13.0694 25.1538 12.8713 25.0513 12.7525 24.8667C12.6337 24.6821 12.6139 24.4564 12.7129 24.2513C13.0495 23.4718 13.4258 22.5692 13.8416 21.5436C14.4159 20.1282 14.8515 19.1026 15.0892 18.4462C15.3268 17.7897 15.4654 17.2974 15.4654 16.9282C15.4654 15.841 13.6436 12.4154 13.0892 11.082C12.6337 10.0154 12.0793 9.01025 11.7822 8.29231C11.703 8.06666 11.7426 7.8 11.901 7.61538C12.0594 7.43077 12.2971 7.34872 12.5347 7.41025C13.109 7.55384 13.9802 7.8 14.5545 7.94359C14.7921 8.00513 14.9703 8.27179 15.0694 8.49743C16.3367 11.4103 16.1189 11.9026 17.6436 14.9179C18.2575 16.1282 18.4753 15.8615 18.4753 14.6718C18.4555 13.7897 18.4555 12.9692 18.4357 12.2308C18.4159 11.4718 18.3961 10.7949 18.3763 10.1795C18.3565 9.97436 18.4357 9.78974 18.5743 9.66666C18.7327 9.52308 18.9109 9.48205 19.0892 9.50256C19.6634 9.60513 20.2377 9.68718 20.8119 9.78974C21.1288 9.83077 21.3466 10.1179 21.3466 10.4462C21.3268 11.0615 21.307 12.0667 21.307 13.4205C21.307 14.1385 21.307 14.7128 21.3268 15.1436C21.3664 16.1692 21.5248 16.2923 22.2575 15.0615C22.5941 14.5077 22.9109 13.8308 23.1882 13.0308C23.5842 11.9231 23.8614 11.0615 24.0198 10.3641C24.0991 10.0564 24.3763 9.78974 24.6931 9.83077C25.2872 9.89231 25.8812 9.95384 26.4753 9.99487C26.6931 10.0154 26.8713 10.1385 26.9703 10.3231C27.0694 10.5282 27.0694 10.7333 26.9703 10.9385C26.6931 11.4923 26.3565 12.1897 25.9604 13.0718C25.307 14.4872 24.8911 15.5333 24.6337 16.2103C24.3961 16.8872 24.2575 17.359 24.2575 17.6667C24.2575 17.9744 24.3763 18.4667 24.6337 19.0821C24.8713 19.6974 25.1486 20.3538 25.4654 21.0308C25.7624 21.7077 26.0793 22.3436 26.3565 22.9795C26.5149 23.3692 26.7129 23.7795 26.9307 24.2308C27.0297 24.4359 27.0297 24.6615 26.8911 24.8667C26.7723 25.0718 26.5941 25.1744 26.3565 25.1744H24.5347C24.2575 25.1744 24 24.9897 23.9406 24.7026C23.802 24.2308 23.6436 23.6564 23.406 23C23.2476 22.5487 22.9703 21.9744 22.6337 21.2564C22.3763 20.7231 22.0396 20.1282 21.6832 19.4513C21.4852 19.0615 21.307 18.959 21.3466 19.5744C21.3862 20.0667 21.3664 20.7231 21.3664 21.5846C21.3466 22.8769 21.3466 23.8615 21.3862 24.4974C21.406 24.6821 21.3268 24.8462 21.208 24.9692C21.0892 25.1128 20.9307 25.1744 20.7525 25.1744H18.9307C18.7525 25.1744 18.5941 25.1128 18.4753 24.9692C18.3565 24.8462 18.2971 24.6821 18.2971 24.4974C18.3169 23.9026 18.3367 23.0615 18.3565 22.0154C18.3763 20.4974 18.3961 19.5949 18.3961 19.3282C18.3565 18.6513 18.1783 18.9795 17.8416 19.4718C17.6832 19.841 17.406 20.3744 17.0694 21.0103ZM10.7723 25.1949C10.1189 25.1744 8.99014 25.1949 7.38618 25.1949C6.39608 25.1949 5.38618 25.1744 4.41588 25.1744C3.38618 25.1538 2.35648 25.1538 1.32677 25.1333C0.970338 25.1333 0.69311 24.8462 0.712912 24.4769C0.712912 24.0051 0.732714 23.5744 0.732714 23.1846V22.1795C0.732714 21.9949 0.79212 21.8308 0.930734 21.7077C1.06935 21.5846 1.22776 21.5231 1.40598 21.5436C1.80202 21.5846 2.03965 21.5846 2.09905 21.5641C2.19806 20.8051 2.31687 19.6769 2.49509 18.159C2.67331 16.6615 2.89113 14.7744 3.14856 12.5385C3.40598 10.3436 3.604 8.6 3.74262 7.30769C3.80202 6.85641 3.84163 6.44615 3.88123 6.09743C3.92083 5.78974 4.05945 5.54359 4.31687 5.37948C4.5743 5.21538 4.85153 5.19487 5.12875 5.29743C5.90103 5.58461 6.67331 5.87179 7.44559 6.15897C7.80202 6.28205 8.03965 6.58974 8.07925 6.97949C8.11885 7.38974 8.17826 7.98461 8.25747 8.70256C8.39608 9.95384 8.5941 11.6564 8.83173 13.8103C9.08915 15.9436 9.30697 17.6872 9.46539 19.0615C9.64361 20.4359 9.78222 21.441 9.88123 22.0769C10.1189 22.118 10.4159 22.1385 10.7921 22.159C11.1288 22.1795 11.3862 22.4667 11.3862 22.8154V24.0256V24.5385C11.406 24.7231 11.3268 24.8872 11.208 25.0103C11.109 25.1128 10.9505 25.1949 10.7723 25.1949ZM7.40598 21.9538C7.36638 21.5846 7.24757 20.5385 7.02975 18.8154C6.81192 17.0718 6.65351 15.6974 6.5347 14.6718C6.41588 13.6667 6.33668 12.8462 6.29707 12.2308C6.25747 11.6154 6.19806 11.1231 6.13866 10.7538C6.09905 10.5487 6.05945 10.4667 6.01984 10.4667C5.96044 10.4872 5.94064 10.5487 5.90103 10.6923C5.82182 11.0205 5.76242 11.4718 5.68321 12.0667C5.6238 12.6615 5.52479 13.441 5.42578 14.4462C5.30697 15.4513 5.18816 16.8256 5.02974 18.5487C4.87133 20.3128 4.77232 21.3795 4.71291 21.7897C4.85153 21.8308 5.30697 21.8513 6.05945 21.8923C6.85153 21.9333 7.28717 21.9538 7.40598 21.9538Z" fill="url(#paint3_linear_142_223)"/>
<path d="M10.0197 2.79487C10.0594 2.63076 10.1188 2.48717 10.198 2.3641C10.2772 2.22051 10.3564 2.09743 10.4752 1.99487C10.5742 1.87179 10.693 1.78974 10.8316 1.70769C10.9504 1.62563 11.0891 1.5641 11.2277 1.52307C11.3465 1.48205 11.4851 1.46153 11.6435 1.46153C11.8019 1.46153 11.9603 1.48205 12.099 1.52307C12.2574 1.5641 12.396 1.62563 12.5346 1.70769C12.6732 1.78974 12.792 1.87179 12.891 1.97435C12.99 2.07692 13.0891 2.19999 13.1485 2.34358C13.2277 2.46666 13.2871 2.61025 13.3267 2.75384C13.3663 2.89743 13.3861 3.06153 13.4059 3.20512C13.4059 3.36922 13.3861 3.53333 13.3465 3.67692C13.3069 3.84102 13.2475 3.98461 13.1683 4.1282C13.0891 4.27179 13.0098 4.39487 12.9108 4.49743C12.8118 4.59999 12.693 4.70256 12.5544 4.7641C12.4158 4.84615 12.297 4.90769 12.1386 4.94871C11.9999 4.98974 11.8613 5.01025 11.7029 5.01025C11.5445 5.03076 11.4059 4.98974 11.2475 4.94871C11.0891 4.90769 10.9504 4.84615 10.8118 4.7641C10.693 4.68204 10.5742 4.59999 10.4554 4.49743C10.3366 4.37435 10.2574 4.27179 10.1782 4.1282C10.099 3.98461 10.0396 3.86153 9.99995 3.69743C9.96034 3.55384 9.94054 3.41025 9.94054 3.24615C9.96034 3.12307 9.98015 2.95897 10.0197 2.79487ZM10.6732 2.97948C10.6336 3.12307 10.6138 3.26666 10.6336 3.43076C10.6534 3.57435 10.693 3.71794 10.7524 3.84102C10.8118 3.9641 10.9108 4.06666 11.0098 4.16922C11.1287 4.27179 11.2475 4.33333 11.4059 4.37435C11.5445 4.41538 11.6831 4.41538 11.8415 4.39487C11.9801 4.37435 12.099 4.31281 12.2178 4.25128C12.3366 4.16922 12.4356 4.08717 12.5148 3.9641C12.594 3.84102 12.6534 3.71794 12.693 3.55384C12.7326 3.38974 12.7524 3.24615 12.7326 3.10256C12.7128 2.95897 12.6732 2.81538 12.6138 2.6923C12.5346 2.56922 12.4554 2.46666 12.3564 2.3641C12.2376 2.28204 12.1188 2.22051 11.9801 2.17948C11.8217 2.13846 11.6831 2.13846 11.5445 2.15897C11.4059 2.17948 11.2871 2.24102 11.1683 2.30256C11.0495 2.38461 10.9504 2.48717 10.8514 2.58974C10.7524 2.6923 10.693 2.81538 10.6732 2.97948ZM15.8217 3.47179C15.8415 3.34871 15.8415 3.26666 15.7623 3.18461C15.7029 3.10256 15.6039 3.04102 15.5049 3.02051L14.8514 2.87692L14.693 3.6564L15.3465 3.79999C15.4059 3.82051 15.4653 3.82051 15.5247 3.79999C15.5841 3.77948 15.6237 3.75897 15.6633 3.73846C15.7029 3.71794 15.7425 3.67692 15.7623 3.63589C15.8019 3.57435 15.8217 3.51281 15.8217 3.47179ZM14.594 4.18974L14.4158 5.07179L15.2079 5.2564C15.2673 5.27692 15.3267 5.27692 15.3861 5.23589C15.4455 5.21538 15.4851 5.19487 15.5247 5.17435C15.5841 5.13333 15.6039 5.0923 15.6435 5.05128C15.6831 4.98974 15.7029 4.94871 15.7029 4.88717C15.7227 4.82563 15.7227 4.7641 15.7029 4.70256C15.6831 4.64102 15.6633 4.57948 15.6435 4.53846C15.6237 4.47692 15.5841 4.43589 15.5445 4.39487C15.5049 4.35384 15.4455 4.33333 15.3861 4.31281L14.594 4.18974ZM16.4752 3.59487C16.4554 3.71794 16.396 3.82051 16.3366 3.94358C16.2772 4.04615 16.198 4.10769 16.1188 4.16922C16.1782 4.23076 16.2178 4.2923 16.2574 4.37435C16.297 4.4564 16.3168 4.51794 16.3366 4.59999C16.3564 4.66153 16.3564 4.74358 16.3564 4.82563C16.3762 4.90769 16.3564 4.98974 16.3366 5.07179C16.297 5.21538 16.2574 5.31794 16.1782 5.44102C16.099 5.54358 16.0198 5.64615 15.9207 5.70769C15.8217 5.78974 15.7029 5.83076 15.5643 5.87179C15.4455 5.91281 15.3069 5.91281 15.1683 5.87179L13.7623 5.5641C13.7227 5.5641 13.7029 5.54358 13.6831 5.52307C13.6633 5.48205 13.6633 5.46153 13.6633 5.42051L14.297 2.28205C14.3168 2.24102 14.3168 2.22051 14.3564 2.19999C14.396 2.17948 14.4158 2.17948 14.4554 2.17948L15.7623 2.44615C15.9009 2.48717 15.9999 2.5282 16.1188 2.58974C16.2178 2.67179 16.297 2.75384 16.3762 2.8564C16.4554 2.95897 16.495 3.08205 16.5148 3.20512C16.5148 3.3282 16.5148 3.47179 16.4752 3.59487ZM17.8811 5.11281L18.8316 5.27692L18.5544 4.00512L17.8811 5.11281ZM18.4356 3.04102C18.4554 3.02051 18.4752 2.99999 18.495 2.99999C18.5148 2.97948 18.5346 2.97948 18.5742 2.97948L18.8316 3.02051C18.8712 3.04102 18.891 3.04102 18.9108 3.06153C18.9306 3.08205 18.9306 3.10256 18.9504 3.12307L19.7425 6.58974C19.7425 6.61025 19.7227 6.63076 19.7029 6.65128C19.6831 6.67179 19.6435 6.67179 19.6039 6.67179L19.1881 6.58974C19.1485 6.58974 19.1287 6.58974 19.1287 6.56922C19.1089 6.54871 19.1089 6.5282 19.0891 6.50769L18.9504 5.93333L17.5445 5.68717L17.2475 6.17948C17.2277 6.24102 17.1881 6.24102 17.1485 6.24102L16.693 6.17948C16.6534 6.17948 16.6336 6.15897 16.6138 6.13846C16.594 6.11794 16.594 6.09743 16.594 6.07692C16.594 6.0564 16.7524 5.81025 17.0495 5.31794C17.3861 4.80512 17.8415 4.04615 18.4356 3.04102ZM21.0495 4.49743C21.0693 4.43589 21.0891 4.37435 21.1089 4.33333C21.1287 4.27179 21.1683 4.23076 21.2277 4.18974C21.2673 4.14871 21.3267 4.1282 21.3861 4.08717C21.4455 4.06666 21.5247 4.06666 21.5841 4.06666L22.3366 4.16922L22.2178 5.15384L21.4455 5.05128C21.3663 5.03076 21.3069 5.01025 21.2475 4.98974C21.1881 4.94871 21.1485 4.90769 21.1287 4.86666C21.0891 4.80512 21.0693 4.7641 21.0495 4.70256C21.0495 4.62051 21.0495 4.55897 21.0495 4.49743ZM23.0693 3.73846C23.0891 3.6564 23.0495 3.61538 22.9702 3.61538L21.6237 3.45128C21.4653 3.43076 21.3267 3.43076 21.1881 3.4923C21.0495 3.53333 20.9306 3.59487 20.8118 3.69743C20.7128 3.77948 20.6138 3.88205 20.5544 4.02563C20.4752 4.14871 20.4356 4.2923 20.4158 4.4564C20.396 4.55897 20.396 4.66153 20.4158 4.7641C20.4356 4.86666 20.4554 4.94871 20.495 5.03076C20.5346 5.13333 20.5742 5.19487 20.6336 5.27692C20.693 5.35897 20.7524 5.42051 20.8316 5.48205L20.1188 6.65128C20.1188 6.65128 20.099 6.65128 20.099 6.67179V6.6923C20.099 6.71281 20.099 6.73333 20.1188 6.75384C20.1386 6.77435 20.1584 6.77435 20.198 6.79487L20.7326 6.8564C20.7722 6.87692 20.8118 6.83589 20.8316 6.79487L21.4653 5.7282L22.1584 5.81025L22.0198 6.91794C22 6.97948 22.0396 7.02051 22.099 7.04102L22.5742 7.10256C22.594 7.12307 22.6336 7.10256 22.6534 7.08205C22.6732 7.06153 22.693 7.04102 22.693 6.99999L23.0693 3.73846ZM26.8514 4.90769C26.8712 4.78461 26.8316 4.70256 26.7524 4.62051C26.6732 4.55897 26.594 4.51794 26.4752 4.49743L25.8019 4.4564L25.7425 5.2564L26.4158 5.29743C26.4752 5.29743 26.5346 5.29743 26.5742 5.27692C26.6336 5.2564 26.6732 5.23589 26.7128 5.19487C26.7524 5.15384 26.792 5.11281 26.8118 5.07179C26.8316 5.03076 26.8514 4.96922 26.8514 4.90769ZM25.7227 5.81025L25.6633 6.71281L26.4752 6.77435C26.5346 6.79487 26.594 6.77435 26.6336 6.75384C26.693 6.73333 26.7326 6.6923 26.7722 6.67179C26.8118 6.63076 26.8514 6.58974 26.8712 6.5282C26.891 6.46666 26.9108 6.42563 26.9108 6.3641C26.9108 6.30256 26.9108 6.24102 26.891 6.19999C26.8712 6.13846 26.8514 6.09743 26.8118 6.03589C26.7722 5.99487 26.7326 5.95384 26.693 5.93333C26.6336 5.8923 26.594 5.87179 26.5346 5.87179L25.7227 5.81025ZM27.5247 4.94871C27.5049 5.07179 27.4851 5.19487 27.4455 5.29743C27.3861 5.39999 27.3267 5.50256 27.2475 5.5641C27.3069 5.62563 27.3663 5.66666 27.4059 5.7282C27.4653 5.78974 27.4851 5.87179 27.5247 5.93333C27.5643 5.99487 27.5841 6.07692 27.6039 6.15897C27.6237 6.24102 27.6237 6.32307 27.6237 6.40512C27.6039 6.54871 27.5841 6.67179 27.5247 6.79487C27.4653 6.91794 27.3861 7.02051 27.2871 7.10256C27.1881 7.20512 27.0891 7.26666 26.9702 7.30769C26.8514 7.34871 26.7326 7.36922 26.594 7.36922L25.1287 7.26666C25.0891 7.26666 25.0495 7.24615 25.0297 7.22563C25.0099 7.20512 24.99 7.1641 24.99 7.12307L25.1881 3.92307C25.1881 3.88205 25.2079 3.86153 25.2277 3.82051C25.2475 3.79999 25.2871 3.77948 25.3267 3.79999L26.6534 3.88205C26.792 3.90256 26.9108 3.92307 27.0297 3.98461C27.1287 4.04615 27.2277 4.1282 27.3069 4.21025C27.3861 4.2923 27.4455 4.39487 27.4851 4.51794C27.5049 4.68204 27.5247 4.80512 27.5247 4.94871ZM28.1188 5.74871C28.1188 5.58461 28.1386 5.42051 28.198 5.27692C28.2376 5.13333 28.297 4.98974 28.3762 4.86666C28.4554 4.72307 28.5544 4.62051 28.6534 4.49743C28.7722 4.39487 28.8712 4.31281 29.0099 4.23076C29.1287 4.14871 29.2673 4.10769 29.4257 4.06666C29.5841 4.02563 29.7227 4.00512 29.8811 4.00512C30.0396 4.02563 30.198 4.04615 30.3366 4.08717C30.4752 4.1282 30.6138 4.18974 30.7524 4.27179C30.8712 4.35384 30.9901 4.43589 31.0891 4.55897C31.1881 4.66153 31.2673 4.78461 31.3465 4.9282C31.4257 5.05128 31.4653 5.19487 31.5049 5.35897C31.5445 5.52307 31.5643 5.68717 31.5643 5.83076C31.5445 5.99487 31.5247 6.15897 31.4851 6.30256C31.4257 6.44615 31.3663 6.58974 31.3069 6.73333C31.2277 6.8564 31.1287 6.97948 31.0297 7.08205C30.9306 7.18461 30.8118 7.26666 30.6732 7.34871C30.5346 7.43076 30.396 7.47179 30.2574 7.51281C30.099 7.55384 29.9603 7.57435 29.8019 7.57435C29.6435 7.55384 29.5049 7.53333 29.3465 7.4923C29.2079 7.45128 29.0693 7.38974 28.9504 7.30769C28.8118 7.22564 28.7128 7.14358 28.6138 7.02051C28.5148 6.91794 28.4158 6.79487 28.3564 6.65128C28.2772 6.50769 28.2376 6.3641 28.198 6.22051C28.1188 6.07692 28.099 5.93333 28.1188 5.74871ZM28.7722 5.76922C28.7524 5.93333 28.792 6.07692 28.8316 6.22051C28.891 6.3641 28.9504 6.46666 29.0495 6.58974C29.1287 6.6923 29.2475 6.77435 29.3663 6.83589C29.5049 6.89743 29.6237 6.93846 29.7821 6.93846C29.9405 6.93846 30.0792 6.91794 30.2178 6.8564C30.3366 6.79487 30.4554 6.73333 30.5544 6.63076C30.6534 6.5282 30.7128 6.42563 30.7722 6.28204C30.8316 6.13846 30.8514 5.99487 30.8712 5.85128C30.8712 5.68717 30.8514 5.54358 30.792 5.39999C30.7326 5.2564 30.6732 5.15384 30.594 5.03076C30.495 4.9282 30.396 4.84615 30.2574 4.78461C30.1386 4.72307 30 4.68205 29.8415 4.68205C29.6831 4.68205 29.5445 4.70256 29.4257 4.7641C29.2871 4.82563 29.1881 4.90769 29.0891 5.01025C28.9901 5.11281 28.9108 5.21538 28.8712 5.35897C28.8118 5.46153 28.7722 5.62563 28.7722 5.76922ZM32.0594 7.63589C32.0198 7.63589 32 7.61538 31.9801 7.59487C31.9603 7.57435 31.9603 7.55384 31.9603 7.51281V7.12307C31.9603 7.06153 32 7.02051 32.0594 7.02051C32.099 7.02051 32.1386 6.99999 32.1782 6.97948C32.2178 6.95897 32.2574 6.91794 32.2772 6.89743C32.297 6.8564 32.3366 6.83589 32.3366 6.79487C32.3564 6.75384 32.3564 6.71281 32.3564 6.67179L32.3366 4.21025C32.3366 4.16922 32.3564 4.14871 32.3564 4.1282C32.3762 4.10769 32.396 4.08717 32.4356 4.08717L34.792 4.06666C34.8118 4.06666 34.8514 4.08717 34.8712 4.08717C34.891 4.10769 34.891 4.1282 34.891 4.14871L34.9306 7.43076C34.9306 7.4923 34.891 7.53333 34.8316 7.53333H34.3762C34.3564 7.53333 34.3366 7.53333 34.3168 7.51281C34.297 7.4923 34.297 7.47179 34.297 7.45128L34.2574 4.70256L32.9702 4.72307L32.9901 6.50769C32.9901 6.65128 32.9702 6.77435 32.9306 6.91794C32.891 7.06153 32.8316 7.1641 32.7524 7.28717C32.6732 7.38974 32.5742 7.47179 32.4752 7.53333C32.3366 7.59487 32.2178 7.63589 32.0594 7.63589ZM35.6237 4.18974C35.6237 4.14871 35.6435 4.1282 35.6633 4.10769C35.6831 4.08717 35.7029 4.06666 35.7227 4.06666L36.198 4.04615C36.2178 4.04615 36.2376 4.06666 36.2574 4.08717C36.297 4.10769 36.297 4.1282 36.297 4.16922L36.3564 5.35897L37.8415 5.29743L37.7821 4.08717C37.7623 4.04615 37.7821 4.02563 37.8019 4.00512C37.8217 3.98461 37.8415 3.9641 37.8811 3.9641L38.3366 3.94358C38.3564 3.94358 38.396 3.94358 38.4158 3.9641C38.4356 3.98461 38.4554 4.00512 38.4554 4.04615L38.6138 7.30769C38.6138 7.36922 38.5742 7.41025 38.495 7.41025L38.0396 7.43076C38.0198 7.43076 37.9802 7.43076 37.9604 7.41025C37.9405 7.38974 37.9207 7.36922 37.9207 7.3282L37.8613 5.91281L36.3762 5.97435L36.4356 7.38974C36.4356 7.43076 36.4158 7.45128 36.396 7.47179C36.3762 7.4923 36.3564 7.51281 36.3168 7.51281L35.8613 7.53333C35.8019 7.53333 35.7623 7.4923 35.7623 7.43076L35.6237 4.18974ZM40.2376 6.03589L41.1881 5.95384L40.6138 4.78461L40.2376 6.03589ZM40.297 3.90256C40.297 3.88205 40.3168 3.86153 40.3366 3.84102C40.3564 3.82051 40.396 3.82051 40.4356 3.79999L40.693 3.77948C40.7326 3.77948 40.7524 3.77948 40.7722 3.79999C40.792 3.82051 40.8118 3.84102 40.8118 3.86153L42.4158 6.99999V7.02051C42.4158 7.06153 42.396 7.08205 42.396 7.08205C42.3762 7.10256 42.3366 7.12307 42.297 7.12307L41.8613 7.1641C41.8217 7.1641 41.8019 7.14358 41.8019 7.14358C41.7821 7.12307 41.7623 7.10256 41.7623 7.08205L41.5049 6.54871L40.0792 6.67179L39.9009 7.22563C39.8811 7.28717 39.8613 7.30769 39.8217 7.30769L39.3465 7.34871C39.3069 7.34871 39.2871 7.34871 39.2673 7.3282C39.2475 7.30769 39.2277 7.28717 39.2277 7.26666C39.2277 7.26666 39.3267 6.97948 39.4851 6.40512C39.6831 5.8923 39.9405 5.03076 40.297 3.90256ZM45.7821 4.18974C45.7623 4.06666 45.7029 3.98461 45.6237 3.94358C45.5445 3.88205 45.4455 3.86153 45.3267 3.88205L44.6534 3.98461L44.7722 4.78461L45.4257 4.68205C45.4851 4.66153 45.5445 4.64102 45.5841 4.62051C45.6237 4.59999 45.6633 4.55897 45.7029 4.51794C45.7425 4.47692 45.7623 4.41538 45.7623 4.37435C45.7821 4.2923 45.8019 4.23076 45.7821 4.18974ZM44.8514 5.29743L44.9703 6.19999L45.7623 6.07692C45.8217 6.0564 45.8811 6.03589 45.9207 6.01538C45.9802 5.97435 46.0198 5.95384 46.0396 5.91281C46.0792 5.85128 46.099 5.81025 46.1188 5.74871C46.1386 5.68717 46.1386 5.62564 46.1188 5.58461C46.1188 5.52307 46.099 5.46153 46.0594 5.42051C46.0198 5.35897 46 5.31794 45.9405 5.27692C45.9009 5.23589 45.8613 5.21538 45.8019 5.19487C45.7425 5.17435 45.7029 5.17435 45.6435 5.17435L44.8514 5.29743ZM46.4356 4.06666C46.4554 4.18974 46.4554 4.31281 46.4158 4.43589C46.3762 4.55897 46.3366 4.66153 46.2772 4.74358C46.3366 4.78461 46.396 4.82563 46.4554 4.88717C46.5148 4.94871 46.5544 5.01025 46.6138 5.07179C46.6534 5.13333 46.693 5.21538 46.7128 5.27692C46.7524 5.35897 46.7722 5.42051 46.7722 5.50256C46.792 5.64615 46.792 5.76922 46.7524 5.91281C46.7128 6.03589 46.6534 6.15897 46.594 6.26153C46.5148 6.3641 46.4356 6.46666 46.3168 6.5282C46.2178 6.58974 46.099 6.65128 45.9604 6.67179L44.495 6.87692C44.4554 6.89743 44.4158 6.87692 44.396 6.8564C44.3564 6.83589 44.3564 6.81538 44.3366 6.77435L43.9009 3.59487C43.9009 3.55384 43.9009 3.51281 43.9207 3.4923C43.9405 3.47179 43.9802 3.45128 44 3.45128L45.3267 3.24615C45.4653 3.22563 45.5841 3.22563 45.7029 3.26666C45.8217 3.30769 45.9207 3.34871 46.0198 3.43076C46.1188 3.51281 46.198 3.59487 46.2574 3.69743C46.3762 3.82051 46.4158 3.94358 46.4356 4.06666ZM47.9604 4.35384C48.0198 4.33333 48.099 4.2923 48.1584 4.21025C48.2376 4.1282 48.297 4.04615 48.3366 3.92307C48.3564 3.88205 48.3762 3.84102 48.396 3.79999C48.4158 3.75897 48.4356 3.73846 48.4356 3.69743C48.4356 3.6564 48.4554 3.63589 48.4752 3.61538C48.495 3.57435 48.5148 3.55384 48.5148 3.53333C48.5742 3.41025 48.6138 3.28717 48.6732 3.1641C48.7326 3.06153 48.792 2.95897 48.8712 2.87692C48.9505 2.79487 49.0297 2.73333 49.1287 2.67179C49.2277 2.61025 49.3465 2.56922 49.4851 2.54871C49.5445 2.5282 49.5643 2.56922 49.5841 2.63076L49.6633 3.04102C49.6831 3.08205 49.6633 3.10256 49.6435 3.12307C49.6237 3.14358 49.6039 3.1641 49.5841 3.1641C49.5049 3.18461 49.4257 3.22563 49.3465 3.30769C49.2673 3.38974 49.1881 3.4923 49.1287 3.63589C49.0891 3.69743 49.0693 3.75897 49.0297 3.84102C48.9901 3.90256 48.9703 3.9641 48.9505 4.02563C48.9108 4.10769 48.891 4.14871 48.8712 4.21025C48.8316 4.27179 48.8118 4.31281 48.792 4.35384L50.495 5.81025C50.5148 5.83076 50.5148 5.83076 50.5148 5.85128C50.5346 5.85128 50.5346 5.87179 50.5346 5.87179C50.5148 5.8923 50.5148 5.8923 50.495 5.8923L49.8217 6.03589C49.8019 6.03589 49.7821 6.03589 49.7623 6.01538C49.7425 5.99487 49.7227 5.99487 49.7029 5.99487C49.6831 5.97435 49.6633 5.95384 49.6633 5.95384C49.6435 5.93333 49.6237 5.91281 49.6039 5.91281L48.396 4.86666C48.3564 4.9282 48.297 4.94871 48.2376 4.98974C48.1782 5.03076 48.1188 5.05128 48.0594 5.07179L48.2574 6.24102C48.2772 6.30256 48.2376 6.34358 48.1782 6.3641L47.7623 6.44615C47.7029 6.46666 47.6633 6.42563 47.6435 6.3641L47.1089 3.10256C47.0891 3.08205 47.1089 3.04102 47.1287 3.02051C47.1485 2.99999 47.1683 2.97948 47.1881 2.97948L47.6237 2.89743C47.6435 2.89743 47.6633 2.89743 47.7029 2.91794C47.7227 2.93846 47.7425 2.95897 47.7425 2.97948L47.9604 4.35384ZM51.3663 5.78974C51.3069 5.81025 51.2673 5.76922 51.2475 5.70769L51.1485 5.2564C51.1485 5.23589 51.1485 5.21538 51.1683 5.19487C51.1881 5.17435 51.1881 5.15384 51.2079 5.15384C51.2475 5.13333 51.2871 5.13333 51.3267 5.11281C51.3663 5.0923 51.3861 5.07179 51.4257 5.05128C51.4455 5.01025 51.4653 4.98974 51.4851 4.9282C51.5049 4.88717 51.5247 4.82563 51.5445 4.74358C51.5643 4.72307 51.5643 4.70256 51.5643 4.70256L51.6039 4.4564C51.3861 4.1282 51.1683 3.82051 50.9505 3.4923C50.7326 3.18461 50.5148 2.8564 50.297 2.5282V2.54871C50.297 2.5282 50.297 2.5282 50.2772 2.5282C50.2772 2.50769 50.2574 2.48717 50.2574 2.48717C50.2376 2.42563 50.2772 2.40512 50.3366 2.38461L50.7524 2.28205C50.792 2.26153 50.8118 2.26153 50.8316 2.28205C50.8514 2.30256 50.8712 2.32307 50.891 2.34358L50.9306 2.40512C50.9901 2.50769 51.0495 2.61025 51.1287 2.71281C51.1881 2.81538 51.2673 2.93846 51.3267 3.04102C51.3861 3.1641 51.4653 3.26666 51.5247 3.38974C51.6039 3.51281 51.6633 3.59487 51.7227 3.69743C51.7623 3.43076 51.7821 3.1641 51.8019 2.89743C51.8415 2.63076 51.8613 2.3641 51.9009 2.09743C51.9009 2.0564 51.9207 2.03589 51.9406 2.01538C51.9604 1.99487 51.9802 1.97435 52 1.97435L52.4158 1.87179C52.4554 1.85128 52.4752 1.87179 52.495 1.8923C52.5148 1.91281 52.5346 1.91281 52.5346 1.95384C52.5544 1.97435 52.5544 1.97435 52.5544 1.99487L52.5346 2.0564C52.4752 2.48717 52.4158 2.89743 52.3564 3.28717C52.297 3.67692 52.2376 4.04615 52.198 4.39487C52.198 4.43589 52.1782 4.47692 52.1782 4.53846C52.1782 4.59999 52.1584 4.66153 52.1386 4.72307C52.1188 4.84615 52.099 4.96922 52.0792 5.0923C52.0396 5.21538 52 5.31794 51.9604 5.42051C51.9009 5.52307 51.8415 5.60512 51.7425 5.66666C51.6039 5.70769 51.5049 5.76922 51.3663 5.78974ZM55.3069 1.31794C55.3465 1.33846 55.3663 1.33846 55.3861 1.35897C55.4059 1.37948 55.4059 1.42051 55.4059 1.46153L55.2871 1.8923C55.2673 1.93333 55.2475 1.95384 55.2277 1.97435C55.2079 1.99487 55.1881 1.99487 55.1485 1.97435C55.0297 1.93333 54.9307 1.91281 54.8118 1.8923C54.693 1.8923 54.594 1.91281 54.4554 1.93333C54.3168 1.97435 54.198 2.0564 54.0792 2.13846C53.9802 2.24102 53.8811 2.34358 53.8217 2.46666C53.7623 2.58974 53.7227 2.71281 53.7029 2.87692C53.6831 3.02051 53.7029 3.1641 53.7425 3.3282C53.7821 3.47179 53.8613 3.61538 53.9405 3.73846C54.0396 3.86153 54.1188 3.94358 54.2376 4.02563C54.3564 4.10769 54.4752 4.14871 54.6138 4.16922C54.7524 4.18974 54.891 4.18974 55.0495 4.1282C55.1683 4.08717 55.2673 4.04615 55.3663 3.9641C55.4653 3.90256 55.5445 3.82051 55.6237 3.71794C55.6435 3.67692 55.6831 3.67692 55.7029 3.67692C55.7227 3.6564 55.7425 3.67692 55.7821 3.69743L56.099 4.02563C56.1386 4.06666 56.1386 4.08717 56.1386 4.10769C56.1386 4.1282 56.1188 4.14871 56.099 4.16922C56 4.31281 55.8811 4.41538 55.7227 4.51794C55.5643 4.62051 55.4059 4.68204 55.2475 4.74358C55.0891 4.78461 54.9307 4.82563 54.792 4.82563C54.6336 4.82563 54.495 4.80512 54.3366 4.7641C54.198 4.72307 54.0594 4.66153 53.9207 4.59999C53.8019 4.51794 53.6831 4.43589 53.5643 4.33333C53.4455 4.23076 53.3663 4.10769 53.2871 3.9641C53.2079 3.82051 53.1485 3.69743 53.1089 3.53333C53.0495 3.36922 53.0297 3.22563 53.0297 3.06153C53.0297 2.89743 53.0495 2.75384 53.0891 2.61025C53.1287 2.46666 53.1881 2.32307 53.2475 2.17948C53.3267 2.03589 53.4059 1.91281 53.5049 1.81025C53.6039 1.70769 53.7227 1.60512 53.8613 1.52307C53.9802 1.44102 54.1188 1.37948 54.2772 1.33846C54.4554 1.27692 54.6138 1.2564 54.792 1.2564C54.9703 1.23589 55.1485 1.27692 55.3069 1.31794ZM57.3663 2.6923L58.2574 2.38461L57.4257 1.39999L57.3663 2.6923ZM56.891 0.599994C56.891 0.558968 56.9108 0.538455 56.9108 0.517942C56.9306 0.49743 56.9505 0.476917 56.9901 0.476917L57.2277 0.374353C57.2673 0.35384 57.2871 0.35384 57.3069 0.374353C57.3267 0.394866 57.3465 0.394866 57.3663 0.415378L59.6633 3.06153L59.6831 3.08205C59.6831 3.10256 59.6831 3.14358 59.6633 3.1641C59.6633 3.18461 59.6237 3.20512 59.5841 3.22563L59.1683 3.36922C59.1287 3.38974 59.1089 3.38974 59.1089 3.38974C59.0891 3.38974 59.0693 3.36922 59.0495 3.34871L58.6534 2.91794L57.3069 3.38974L57.2673 3.98461C57.2673 4.04615 57.2475 4.06666 57.2079 4.08717L56.7722 4.25128C56.7326 4.27179 56.7128 4.27179 56.693 4.25128C56.6732 4.25128 56.6534 4.23076 56.6534 4.18974C56.6534 4.18974 56.6732 3.90256 56.7128 3.30769C56.7722 2.6923 56.8316 1.78974 56.891 0.599994ZM7.30688 0.0871732C7.32668 0.0666604 7.34648 0.0461476 7.36628 0.0256348C7.38609 0.0256348 7.40589 0.0256348 7.42569 0.0256348L7.86133 0.189737C7.88113 0.189737 7.90094 0.21025 7.92074 0.251276C7.94054 0.271789 7.94054 0.312814 7.94054 0.333327L7.5643 1.46153L8.97024 1.95384L9.34648 0.825635C9.36628 0.784609 9.38609 0.764096 9.40589 0.764096C9.44549 0.743584 9.46529 0.743584 9.4851 0.764096L9.90094 0.907686C9.94054 0.928199 9.96034 0.948712 9.98015 0.969225C9.99995 1.01025 9.99995 1.03076 9.99995 1.05128L8.97024 4.1282C8.95044 4.21025 8.91084 4.21025 8.83163 4.18974L8.39599 4.04615C8.37618 4.02563 8.35638 4.00512 8.33658 3.98461C8.31678 3.9641 8.31678 3.92307 8.31678 3.90256L8.77222 2.56922L7.36628 2.0564L6.91084 3.41025C6.89104 3.45128 6.89104 3.45128 6.85143 3.47179C6.83163 3.4923 6.79203 3.4923 6.77222 3.47179L6.35638 3.30769C6.29698 3.28717 6.27717 3.24615 6.29698 3.18461L7.30688 0.0871732Z" fill="#785454"/>
</g>
<defs>
<linearGradient id="paint0_linear_142_223" x1="32.883" y1="24.4161" x2="32.883" y2="53.9334" gradientUnits="userSpaceOnUse">
<stop stop-color="#2FA1CF"/>
<stop offset="0.739583" stop-color="#359CE4"/>
<stop offset="1" stop-color="#2577BD"/>
</linearGradient>
<linearGradient id="paint1_linear_142_223" x1="2.87131" y1="34.0564" x2="2.87131" y2="38.5282" gradientUnits="userSpaceOnUse">
<stop stop-color="#89D6F5"/>
<stop offset="1" stop-color="#2577BD"/>
</linearGradient>
<linearGradient id="paint2_linear_142_223" x1="61.1286" y1="34.0564" x2="61.1286" y2="38.5282" gradientUnits="userSpaceOnUse">
<stop stop-color="#89D6F5"/>
<stop offset="1" stop-color="#2577BD"/>
</linearGradient>
<linearGradient id="paint3_linear_142_223" x1="32.0011" y1="4.6123" x2="32.0011" y2="25.359" gradientUnits="userSpaceOnUse">
<stop stop-color="#FF7255"/>
<stop offset="1" stop-color="#EB6359"/>
</linearGradient>
<clipPath id="clip0_142_223">
<rect width="62.5743" height="53.9077" fill="white" transform="translate(0.712891 0.0256348)"/>
</clipPath>
</defs>
</svg>
