<svg width="443" height="36" viewBox="0 0 443 36" fill="none" xmlns="http://www.w3.org/2000/svg">
<g clip-path="url(#clip0_0_20)">
<path d="M0 36.4098V22.4045H6.96488L9.40234 22.4825H29.388L31.7071 22.4045H40.7166V36.4098H32.0999V30.5075H8.61671V36.4098H0ZM6.01307 1.00623H35.6428V28.1481H26.4746V4.86133L30.6067 8.95062H10.898L14.6348 5.89121C14.8645 6.96877 15.0026 8.06382 15.0478 9.16465C15.0881 10.2155 15.1082 11.1992 15.1082 12.1158C15.1082 15.1374 14.8321 17.6555 14.2798 19.6699C13.7275 21.6843 12.8881 23.1951 11.7617 24.2023C10.6337 25.2096 9.23027 25.7132 7.55158 25.7132L3.74684 22.5631C4.71712 21.3578 5.44483 19.7312 5.92997 17.6832C6.41511 15.6352 6.65516 13.1314 6.65013 10.1719C6.65013 8.78191 6.59725 7.32565 6.49149 5.80308C6.38573 4.28051 6.22626 2.68156 6.01307 1.00623Z" fill="#35ADE1"/>
<path d="M41.7694 30.5076L53.375 11.2723L60.1007 16.6609L52.1563 30.5101L41.7694 30.5076ZM74.0657 22.1981L71.588 21.3319L87.3232 0.996216H96.9622L72.9326 30.5076H66.2069L42.2101 1.00629H51.8088L67.5843 21.3419L65.0663 22.2081V1.00629H74.0733L74.0657 22.1981ZM86.9706 30.5076L79.064 16.6584L85.7494 11.2698L97.355 30.5051L86.9706 30.5076Z" fill="#35ADE1"/>
<path d="M114.083 31.176C110.542 31.176 107.441 30.5339 104.778 29.2497C102.241 28.0719 100.087 26.2036 98.5614 23.8585C97.0808 21.552 96.3405 18.851 96.3405 15.7555C96.3405 12.66 97.0808 9.95901 98.5614 7.65249C100.087 5.30745 102.241 3.43915 104.778 2.26138C107.439 0.97718 110.54 0.335083 114.083 0.335083C117.625 0.335083 120.725 0.97718 123.384 2.26138C125.921 3.43915 128.076 5.30745 129.601 7.65249C131.082 9.95901 131.822 12.66 131.822 15.7555C131.822 18.851 131.082 21.552 129.601 23.8585C128.076 26.2036 125.921 28.0719 123.384 29.2497C120.722 30.5339 117.621 31.176 114.083 31.176ZM114.083 23.0326C115.64 23.0703 117.186 22.7687 118.615 22.1488C119.819 21.6163 120.838 20.7403 121.546 19.6308C122.216 18.4491 122.568 17.1139 122.568 15.7555C122.568 14.3971 122.216 13.0619 121.546 11.8803C120.838 10.7707 119.819 9.89478 118.615 9.36224C115.7 8.1838 112.442 8.1838 109.527 9.36224C108.324 9.89478 107.304 10.7707 106.596 11.8803C105.926 13.0619 105.574 14.3971 105.574 15.7555C105.574 17.1139 105.926 18.4491 106.596 19.6308C107.304 20.7403 108.324 21.6163 109.527 22.1488C110.963 22.7719 112.518 23.0736 114.083 23.0326Z" fill="#35ADE1"/>
<path d="M135.718 1.00598H144.883V30.5073H135.718V1.00598ZM140.87 11.4306H162.384V19.5337H140.87V11.4306ZM158.69 1.00598H167.855V30.5073H158.69V1.00598Z" fill="#35ADE1"/>
<path d="M172.959 1.00598H182.125V30.5073H172.959V1.00598ZM178.124 11.4306H199.65V19.5337H178.124V11.4306ZM195.944 1.00598H205.109V30.5073H195.944V1.00598Z" fill="#35ADE1"/>
<path d="M210.228 30.5073V1.00598H219.278V25.5921L216.838 25.0406L232.298 1.00598H244.256V30.5073H235.209V5.37225L237.609 5.92118L221.833 30.5073H210.228Z" fill="#35ADE1"/>
</g>
<g clip-path="url(#clip1_0_20)">
<path d="M262.228 0.260864H293.268V8.40166H262.228V0.260864ZM273.164 4.2318H282.342V29.7621H273.164V4.2318Z" fill="#35ADE1"/>
<path d="M308.921 25.9875L294.13 0.260742H304.202L315.453 20.0072L308.921 25.9875ZM303.651 29.7645L309.117 20.1683H309.236L320.486 0.263255H330.362L313.524 29.762L303.651 29.7645Z" fill="#35ADE1"/>
<path d="M332.879 0.260864H342.044V29.7621H332.879V0.260864ZM338.033 10.683H359.55V18.7886H338.033V10.683ZM355.853 0.260864H365.019V29.7621H355.853V0.260864Z" fill="#35ADE1"/>
<path d="M380.242 15.0122L378.394 26.4315L374.814 22.458H397.274V29.7729H369.307L371.51 15.0222L369.307 0.271606H397.078V7.5865H374.814L378.394 3.61304L380.242 15.0122ZM395.905 11.7866V18.2378H373.998V11.7866H395.905Z" fill="#35ADE1"/>
<path d="M433.389 0.260742V24.6857L430.045 21.664H438.46V35.6693H429.899V27.9919L432.102 29.7545H401.722V0.260742H410.888V24.6857L407.866 21.664H427.575L424.231 24.6857V0.260742H433.389Z" fill="#35ADE1"/>
</g>
<defs>
<clipPath id="clip0_0_20">
<rect width="244.247" height="35.9627" fill="white" transform="translate(0 0.0186768)"/>
</clipPath>
<clipPath id="clip1_0_20">
<rect width="179.814" height="35.9627" fill="white" transform="translate(262.228 0.0186768)"/>
</clipPath>
</defs>
</svg>
