<?xml version="1.0" standalone="no"?>
<!DOCTYPE svg PUBLIC "-//W3C//DTD SVG 20010904//EN"
 "http://www.w3.org/TR/2001/REC-SVG-20010904/DTD/svg10.dtd">
<svg version="1.0" xmlns="http://www.w3.org/2000/svg"
 width="700.000000pt" height="700.000000pt" viewBox="0 0 700.000000 700.000000"
 preserveAspectRatio="xMidYMid meet">
<metadata>
Created by potrace 1.14, written by Peter Selinger 2001-2017
</metadata>
<g transform="translate(0.000000,700.000000) scale(0.100000,-0.100000)"
fill="#000000" stroke="none">
<path d="M82 6979 c-23 -12 -52 -34 -63 -50 -25 -36 -22 -72 22 -239 17 -63
32 -122 34 -130 38 -157 176 -540 265 -735 66 -144 185 -376 240 -465 106
-174 146 -236 223 -346 112 -159 303 -404 382 -490 6 -6 39 -44 75 -84 36 -40
78 -87 93 -104 50 -54 231 -248 267 -286 85 -90 241 -258 269 -290 16 -19 46
-53 67 -75 20 -22 71 -85 114 -140 201 -262 284 -428 336 -680 12 -62 12 -282
-2 -356 -68 -375 -126 -541 -631 -1814 -188 -473 -185 -464 -184 -517 0 -81
52 -147 132 -168 49 -13 83 -10 264 29 77 16 160 32 185 36 24 4 47 8 50 10 3
2 21 6 40 9 96 15 334 68 353 79 41 23 106 77 127 107 18 25 122 294 165 425
7 22 38 112 68 200 31 88 85 248 122 355 107 315 199 562 250 675 14 29 25 56
25 59 0 7 108 236 120 256 5 8 16 29 23 45 42 91 242 403 327 509 178 222 331
375 625 627 205 175 395 344 540 479 38 36 74 70 81 75 30 26 360 354 454 452
112 116 245 262 301 328 19 22 36 42 39 45 3 3 37 43 76 90 482 581 801 1109
999 1656 51 139 53 171 16 222 -25 36 -113 84 -155 85 -28 1 -58 -20 -202
-138 -93 -77 -171 -142 -174 -145 -3 -3 -32 -27 -65 -55 -33 -27 -65 -54 -71
-60 -6 -5 -31 -26 -55 -47 -24 -20 -136 -114 -249 -209 -113 -94 -225 -188
-248 -208 -24 -20 -49 -41 -55 -46 -151 -135 -610 -496 -867 -682 -348 -251
-462 -311 -855 -443 -331 -111 -416 -151 -505 -240 -59 -58 -120 -154 -120
-188 0 -7 -4 -12 -10 -12 -5 0 -10 3 -10 8 0 14 -144 157 -200 199 -84 63
-179 106 -355 162 -245 77 -386 154 -596 327 -57 47 -124 102 -149 122 -116
95 -338 283 -445 376 -201 176 -263 234 -465 436 -199 199 -369 377 -626 656
-16 17 -76 82 -134 144 -58 62 -114 123 -125 135 -44 50 -87 56 -153 24z"/>
</g>
</svg>
